<?xml version="1.0" encoding="UTF-8" standalone="no"?>
<!DOCTYPE svg PUBLIC "-//W3C//DTD SVG 1.1//EN" "http://www.w3.org/Graphics/SVG/1.1/DTD/svg11.dtd">
<svg width="100%" height="100%" viewBox="0 0 345 345" version="1.1" xmlns="http://www.w3.org/2000/svg" xmlns:xlink="http://www.w3.org/1999/xlink" xml:space="preserve" xmlns:serif="http://www.serif.com/" style="fill-rule:evenodd;clip-rule:evenodd;stroke-linejoin:round;stroke-miterlimit:2;">
    <g transform="matrix(1,0,0,1,-244.836,-490.137)">
        <g id="boy" transform="matrix(1,0,0,1,20.8363,6.13732)">
            <circle cx="396.5" cy="656.5" r="172.5" style="fill:rgb(0,255,213);"/>
            <clipPath id="_clip1">
                <circle cx="396.5" cy="656.5" r="172.5"/>
            </clipPath>
            <g clip-path="url(#_clip1)">
                <g id="white" transform="matrix(1,0,0,1,-20.8363,-6.13732)">
                    <path d="M332,808C332,808 341.375,789.771 346.593,779.624C348.691,775.545 352.861,772.947 357.448,772.862C377.35,772.494 431.571,771.489 450.976,771.13C455.312,771.05 459.352,773.324 461.532,777.073C468.677,789.358 484.172,816 484.172,816C423.348,863.109 373.156,857.821 332,808Z" style="fill:rgb(254,239,148);"/>
                    <path d="M384,746C384,746 384.557,757.132 384.839,762.786C384.944,764.885 384.446,766.97 383.403,768.794C382.289,770.744 381,773 381,773C394.759,791.3 410.044,789.764 426.5,773C421.939,769.945 421.165,759.948 422,747L384,746Z" style="fill:rgb(252,164,158);"/>
                    <g transform="matrix(0.990037,-0.14081,0.14081,0.990037,-88.6049,63.5763)">
                        <path d="M314.458,628.453C312.347,626.702 309.69,625.745 306.948,625.749C299.598,625.72 295.409,627.236 292.767,629.524C291.328,630.75 290.257,632.351 289.672,634.148C281.759,658.351 290.71,671.553 302.727,682.747C303.055,683.052 303.403,683.336 303.768,683.595C310.502,688.308 317.619,687.863 325,684L332,643C332,643 320.134,633.16 314.458,628.453Z" style="fill:rgb(252,164,158);"/>
                        <g transform="matrix(-0.932941,-0.36003,-0.36003,0.932941,1030.64,202.385)">
                            <path d="M314.458,628.453C312.347,626.702 309.69,625.745 306.948,625.749C299.598,625.72 295.409,627.236 292.767,629.524C291.328,630.75 290.257,632.351 289.672,634.148C281.759,658.351 290.71,671.553 302.727,682.747C303.055,683.052 303.403,683.336 303.768,683.595C310.502,688.308 317.619,687.863 325,684L332,643C332,643 320.134,633.16 314.458,628.453Z" style="fill:rgb(252,164,158);"/>
                        </g>
                        <path d="M327.485,637.738C327.165,639.24 327.003,640.771 327.003,642.307C327,646.78 327,656.721 327,662.777C327,666.088 326.435,669.375 325.329,672.496C324.269,675.488 322.842,679.513 321.47,683.386C318.501,691.764 319.724,701.057 324.761,708.381C362.223,763.209 409.464,769.036 462.312,746.827C472.636,742.529 480.245,733.506 482.737,722.604C484.475,715.047 486.266,707.211 486.824,704.771C486.941,704.257 487.089,703.751 487.267,703.256C488.908,698.685 497.612,674.433 499.597,668.903C499.865,668.156 500.09,667.393 500.272,666.62C507.172,637.305 520.342,586.877 482,572C450.86,547.522 416.431,538.115 373,547C337.452,550.857 333.581,608.226 327.485,637.738Z" style="fill:rgb(253,212,213);"/>
                        <path d="M373,698C389.989,709.642 411.887,712.899 437.233,708.743C437.77,708.655 438.318,708.668 438.85,708.779C440.015,709.041 441.101,708.823 442.066,709.326C454.851,715.991 453.227,725.662 450.395,731.253C450.145,731.735 449.845,732.189 449.498,732.607C446.071,736.679 441.278,739.992 435.504,742.761C435.178,742.917 434.839,743.047 434.491,743.15C408.132,750.898 386.203,746.241 367.272,733.188C367.086,733.06 366.904,732.926 366.727,732.786C360.926,728.19 357.383,723.595 356,719C352.402,707.105 356.631,699.313 364.436,696.086C365.887,695.492 367.52,695.529 368.943,696.187C370.717,696.944 373,698 373,698Z" style="fill:rgb(174,58,42);"/>
                        <clipPath id="_clip2">
                            <path d="M373,698C389.989,709.642 411.887,712.899 437.233,708.743C437.77,708.655 438.318,708.668 438.85,708.779C440.015,709.041 441.101,708.823 442.066,709.326C454.851,715.991 453.227,725.662 450.395,731.253C450.145,731.735 449.845,732.189 449.498,732.607C446.071,736.679 441.278,739.992 435.504,742.761C435.178,742.917 434.839,743.047 434.491,743.15C408.132,750.898 386.203,746.241 367.272,733.188C367.086,733.06 366.904,732.926 366.727,732.786C360.926,728.19 357.383,723.595 356,719C352.402,707.105 356.631,699.313 364.436,696.086C365.887,695.492 367.52,695.529 368.943,696.187C370.717,696.944 373,698 373,698Z"/>
                        </clipPath>
                        <g clip-path="url(#_clip2)">
                            <path d="M374,694L374,714C388.916,727.016 408.243,727.532 429,724L440,705L374,694Z" style="fill:rgb(255,250,252);"/>
                            <g transform="matrix(-0.999974,-0.00714577,0.00714577,-0.999974,795.388,1454.05)">
                                <path d="M361.065,703.093L371.072,724.021C386.824,724.633 408.189,723.476 428.064,733.007L441.064,713.993C413.742,701.839 387.13,698.919 361.065,703.093Z" style="fill:rgb(255,250,252);"/>
                            </g>
                        </g>
                        <path d="M395,697L402,692C407.679,693.764 410.277,696.714 412,700C404.702,700.632 397.429,701.238 395,697Z" style="fill:rgb(191,120,107);"/>
                        <path d="M348,630C360.264,624.613 371.517,623.264 382,625C380.496,621.649 378.403,618.388 369.628,616.155C369.23,616.054 368.822,616.002 368.411,616.002C366.993,616 363.373,616 361.563,616C360.83,616 360.106,616.164 359.444,616.479C351.302,620.371 348.628,625.039 348,630Z" style="fill:rgb(27,50,81);"/>
                        <g transform="matrix(-0.973112,-0.230331,-0.230331,0.973112,965.682,120.822)">
                            <path d="M348,630C360.264,624.613 371.517,623.264 382,625C380.496,621.649 378.403,618.388 369.628,616.155C369.23,616.054 368.822,616.002 368.411,616.002C366.993,616 363.373,616 361.563,616C360.83,616 360.106,616.164 359.444,616.479C351.302,620.371 348.628,625.039 348,630Z" style="fill:rgb(27,50,81);"/>
                        </g>
                        <path d="M380,681L382,661C379.582,648.742 373.229,640.842 360.5,640L352,640L345,642L341,656.381C338.426,668.401 342.099,674.718 348,679C361.56,686.995 371.964,686.998 380,681Z" style="fill:rgb(34,33,40);"/>
                        <clipPath id="_clip3">
                            <path d="M380,681L382,661C379.582,648.742 373.229,640.842 360.5,640L352,640L345,642L341,656.381C338.426,668.401 342.099,674.718 348,679C361.56,686.995 371.964,686.998 380,681Z"/>
                        </clipPath>
                        <g clip-path="url(#_clip3)">
                            <path d="M345,675C343.566,669.768 343.86,664.042 344.985,658.079C344.995,658.024 345.007,657.969 345.02,657.914C347.066,649.066 350.837,645.39 355.709,645.018C355.817,645.01 355.925,645.006 356.033,645.006C356.592,645 364,645 364,645C376.71,646.779 379.259,653.612 383,658.381L381,689L345,683L345,675Z" style="fill:rgb(255,252,255);"/>
                            <circle cx="371.5" cy="673.5" r="20.5" style="fill:rgb(41,191,239);"/>
                            <g transform="matrix(0.816709,0,0,0.816709,69.85,125.204)">
                                <circle cx="371.5" cy="673.5" r="20.5" style="fill:rgb(34,33,40);"/>
                            </g>
                        </g>
                        <g transform="matrix(-0.877365,-0.479823,-0.479823,0.877365,1090.83,277.827)">
                            <path d="M380,681L382,661C379.582,648.742 373.229,640.842 360.5,640L352,640L345,642L341,656.381C338.426,668.401 342.099,674.718 348,679C361.56,686.995 371.964,686.998 380,681Z" style="fill:rgb(34,33,40);"/>
                            <clipPath id="_clip4">
                                <path d="M380,681L382,661C379.582,648.742 373.229,640.842 360.5,640L352,640L345,642L341,656.381C338.426,668.401 342.099,674.718 348,679C361.56,686.995 371.964,686.998 380,681Z"/>
                            </clipPath>
                            <g clip-path="url(#_clip4)">
                                <path d="M345,675C343.566,669.768 343.86,664.042 344.985,658.079C344.995,658.024 345.007,657.969 345.02,657.914C347.066,649.066 350.837,645.39 355.709,645.018C355.817,645.01 355.925,645.006 356.033,645.006C356.592,645 364,645 364,645C376.71,646.779 379.259,653.612 383,658.381L381,689L345,683L345,675Z" style="fill:rgb(255,252,255);"/>
                                <circle cx="371.5" cy="673.5" r="20.5" style="fill:rgb(41,191,239);"/>
                                <g transform="matrix(0.816709,0,0,0.816709,69.85,125.204)">
                                    <circle cx="371.5" cy="673.5" r="20.5" style="fill:rgb(34,33,40);"/>
                                </g>
                            </g>
                        </g>
                        <path d="M332,609C346.5,585.502 362.128,573.15 380,580C377.715,588.052 380.933,595.103 385,602C395.779,582.143 406.558,572.043 417.336,566C415.568,584.14 420.685,600.313 431,615C432.843,603.902 435.005,595.038 438,592C441.292,601.026 448.1,607.854 456,614C454.251,607.945 452.506,601.89 456,597C486.397,594.457 499.066,611.987 503.615,652.149C503.615,652.149 509.939,627.79 512.205,619.064C512.755,616.943 512.872,614.733 512.547,612.566C509.12,590.308 498.886,569.867 464,556C442.435,545.242 418.184,540.396 391,542C342.387,547.837 332.217,575.025 332,609Z" style="fill:rgb(27,50,81);"/>
                    </g>
                </g>
            </g>
        </g>
    </g>
</svg>
